<svg xmlns="http://www.w3.org/2000/svg" id="g3393" width="27.258" height="37.689" viewBox="0 0 27.258 37.689">
    <defs>
        <style>
            .cls-1{fill:#d33833}.cls-1,.cls-10,.cls-11,.cls-14,.cls-15,.cls-16,.cls-17,.cls-4,.cls-5,.cls-6,.cls-7,.cls-8{fill-rule:evenodd}.cls-14,.cls-2{fill:#ef3d3a}.cls-15,.cls-3{fill:#231f20}.cls-4{fill:#f0d6b7}.cls-5{fill:#335061}.cls-6{fill:#6d6b6d}.cls-7{fill:#dcd9d8}.cls-8,.cls-9{fill:#f7e4cd}.cls-10{fill:#49728b}.cls-11,.cls-12{fill:#fff}.cls-13{fill:none;stroke:#d33833;stroke-width:2.5px}.cls-16{fill:#81b0c4}.cls-17{fill:#1d1919}
        </style>
    </defs>
    <path id="path22" d="M29.836-259.935a13.372 13.372 0 0 1-13.219 13.521A13.372 13.372 0 0 1 3.4-259.935a13.372 13.372 0 0 1 13.218-13.521 13.372 13.372 0 0 1 13.219 13.521" class="cls-1" transform="translate(-2.988 278.097)"/>
    <path id="path24" d="M2.727-250.359s-.957-14.1 12.035-14.5l-.906-1.511-7.05 2.367-2.014 2.316-1.762 3.374-1.007 3.928.3 2.618" class="cls-2" transform="translate(-1.777 271.869)"/>
    <path id="path26" d="M4.576-271.778A13.224 13.224 0 0 0 .821-262.5a13.223 13.223 0 0 0 3.754 9.273 12.618 12.618 0 0 0 9.053 3.837 12.618 12.618 0 0 0 9.053-3.837 13.224 13.224 0 0 0 3.755-9.273 13.225 13.225 0 0 0-3.755-9.274 12.621 12.621 0 0 0-9.053-3.836 12.621 12.621 0 0 0-9.053 3.836zm-.587 19.121A14.046 14.046 0 0 1 0-262.5a14.046 14.046 0 0 1 3.989-9.848 13.441 13.441 0 0 1 9.64-4.084 13.44 13.44 0 0 1 9.64 4.084 14.045 14.045 0 0 1 3.989 9.848 14.044 14.044 0 0 1-3.989 9.847 13.443 13.443 0 0 1-9.64 4.084 13.444 13.444 0 0 1-9.64-4.084" class="cls-3" transform="translate(0 280.716)"/>
    <path id="path28" d="M55.513-289.535l-2.014.3-2.719.3-1.763.05-1.712-.05-1.309-.4-1.158-1.259-.906-2.568-.2-.554-1.209-.4-.705-1.158-.5-1.662.554-1.46 1.309-.453 1.057.5.5 1.108.6-.1.2-.252-.2-1.158-.05-1.46.3-2.014-.012-1.151.918-1.468L48.11-306l2.82-1.209 3.122.453 2.719 1.964 1.259 2.014.806 1.46.2 3.626-.6 3.122-1.108 2.77-1.057 1.46" class="cls-4" transform="translate(-36.319 307.771)"/>
    <path id="path30" d="M41.347-157.377l-7.2.3v1.209l.6 4.23-.3.353L29.412-153l-.353-.6-.5-5.69-1.159-3.425-.252-.806 4.028-2.77 1.259-.5 1.108 1.36.957.856 1.108.352.5.151.6 2.619.453.554 1.158-.4-.806 1.561 4.381 2.065-.554.3" class="cls-5" transform="translate(-23.865 184.325)"/>
    <path id="path32" d="M44.43-295.1l1.309-.453 1.057.5.5 1.108.6-.1.151-.6-.3-1.158.3-2.77-.252-1.511.906-1.057 1.964-1.561-.554-.755-2.77 1.36-1.158.906-.655 1.41-1.007 1.36-.3 1.611.2 1.712" class="cls-6" transform="translate(-38.883 304.475)"/>
    <path id="path34" d="M54.554-298.6s.755-1.863 3.777-2.77.151-.655.151-.655l-3.273 1.259-1.259 1.259-.55 1.007 1.158-.1" class="cls-7" transform="translate(-46.943 303.243)"/>
    <path id="path36" d="M44.984-270.911s-1.057-3.525 2.971-4.029l-.151-.6-2.77.655-.806 2.618.2 1.712.554-.352" class="cls-7" transform="translate(-38.883 279.932)"/>
    <path id="path38" d="M63.812-203.107l.659-.639a.425.425 0 0 1 .348.387c.05.353.2 3.525 2.367 5.237.2.156-1.611-.252-1.611-.252l-1.611-2.518" class="cls-8" transform="translate(-56.1 216.812)"/>
    <path id="path40" d="M140.463-216.673s.117-1.526.528-1.409a.566.566 0 0 1 .411.528s-1 .646-.939.881" class="cls-8" transform="translate(-123.485 229.421)"/>
    <path id="path42" d="M168.438-252.626s-.83.175-.906.906.906.151 1.057.1" class="cls-9" transform="translate(-147.281 259.784)"/>
    <path id="path44" d="M116.586-252.209s-1.108.151-1.108.856 1.259.655 1.611.353" class="cls-9" transform="translate(-101.522 259.417)"/>
    <path id="path46" d="M44.169-235.75s-1.914-1.158-2.115-.05-.655 1.914.3 3.072l-.655-.2-.6-1.561L40.9-236l1.158-1.209 1.309.1.755.6.05.755" class="cls-8" transform="translate(-35.953 246.231)"/>
    <path id="path48" d="M75.106-303.533s.856-4.431 5.187-5.287c3.565-.7 5.438.151 6.143.957 0 0-3.172-3.777-6.194-2.618s-5.237 3.273-5.187 4.633a22.138 22.138 0 0 1 .05 2.317" class="cls-8" transform="translate(-65.984 310.842)"/>
    <path id="path50" d="M161.157-283.046s-1.46-.05-1.511 1.259a1 1 0 0 0 .1.4s1.158-1.309 1.863-.6" class="cls-8" transform="translate(-140.352 286.528)"/>
    <path id="path52" d="M98.159-276.941s-.251-2.01-1.965-.841c-1.108.755-1.007 1.813-.806 2.014s.147.607.3.329.1-1.185.657-1.437 1.462-.533 1.814-.065" class="cls-8" transform="translate(-83.748 282.221)"/>
    <path id="path54" d="M33.541-165.8l-4.733 2.115s1.964 7.805.957 10.222l-.705-.252-.05-2.971-1.309-5.64-.554-1.561 4.935-3.323 1.46 1.41" class="cls-10" transform="translate(-23.865 184.69)"/>
    <path id="path56" d="M82.381-119.822l.672.819v3.021h-.806s-.1-2.115-.1-2.367.1-1.158.1-1.158" class="cls-10" transform="translate(-72.218 143.031)"/>
    <path id="path58" d="M67.745-84.292l-2.266.1.655.453 1.611.252" class="cls-10" transform="translate(-57.565 111.795)"/>
    <path id="path60" d="M148.4-88.826l1.863-.05.453 4.633-1.914.252-.4-4.834" class="cls-5" transform="translate(-130.462 115.825)"/>
    <path id="path62" d="M152.562-162.82l2.82-.151s1.158-2.921 1.158-3.072 1.007-4.23 1.007-4.23l-2.266-2.367-.453-.4-1.209 1.209v4.683l-1.057 4.331" class="cls-5" transform="translate(-134.124 189.819)"/>
    <path id="path64" d="M150.159-91.376l-1.762.352.252 1.41c.655.3 1.763-.5 1.763-.5" class="cls-10" transform="translate(-130.462 118.023)"/>
    <path id="path66" d="M163.4-171.985l3.525 2.618.1-1.209-2.669-2.467-.957 1.057" class="cls-10" transform="translate(-143.649 189.819)"/>
    <path id="path68" d="M86.709-78.539l-1.043-4.231-.519-3.122-.086-2.317 4.719-.251h2.936l-.267 5.288.453 4.079-.05.755-3.827.3-2.316-.5" class="cls-11" transform="translate(-74.782 115.459)"/>
    <path id="path70" d="M119.535-91.075a44.54 44.54 0 0 0 .5 8.963 9.62 9.62 0 0 1-3.727 1.209l4.23-.151.5-.3-.6-8.258-.151-1.763" class="cls-7" transform="translate(-102.255 118.023)"/>
    <path id="path72" d="M164.352-94.533l1.964-.554 3.726-.2L170.6-97l-1.007-2.971-1.158-.151-1.611.5-1.546.755-.821-.151-.64.251" class="cls-11" transform="translate(-144.015 125.712)"/>
    <path id="path74" d="M167.979-88.217a7.375 7.375 0 0 1 1.511-.554l-.554-2.77.655-.252s.453 2.618.453 2.921c0 0 2.82.151 3.072.151a4.574 4.574 0 0 0 .453-2.367l.554 1.611.05.906-.806 1.209-.906.2-1.511-.05-.5-.655-1.763.252-.554.2" class="cls-7" transform="translate(-147.678 118.388)"/>
    <path id="path76" d="M135.121-129.519l-1.108-2.82-1.158-1.661s.252-.705.6-.705h1.158l1.108.4-.1 1.863-.5 2.921" class="cls-12" transform="translate(-116.799 156.116)"/>
    <path id="path78" d="M134.714-131.213a23.468 23.468 0 0 1-1.41-3.122s.252-.6.6-.453 1.108.554 1.108.554v-.957l-1.712-.353-1.158.151 1.964 4.633.4.05" class="cls-7" transform="translate(-116.176 156.852)"/>
    <path id="path80" d="M82.766-158.739l-1.4-.152-1.309-.4v.453l.64.706 2.014.906" class="cls-12" transform="translate(-70.386 177.732)"/>
    <path id="path82" d="M82.715-153.456a5.565 5.565 0 0 0 2.065.5l.05.6-1.41-.3-.856-.6.151-.2" class="cls-7" transform="translate(-72.585 172.6)"/>
    <path id="path84" d="M150-153.587a9.57 9.57 0 0 1-2.3-.317 7.129 7.129 0 0 1 .029-.749 1.8 1.8 0 0 1 .789-.165 1.372 1.372 0 0 0-.876-.1 1.4 1.4 0 0 0-.145-.462c.48-.171 1.614-1.3 2.252-.923.3.177.433 1.188.457 1.68a1.715 1.715 0 0 1-.2 1.035" class="cls-1" transform="translate(-129.667 175.168)"/>
    <path id="path86" d="M150-153.587a9.57 9.57 0 0 1-2.3-.317 7.129 7.129 0 0 1 .029-.749 1.8 1.8 0 0 1 .789-.165 1.372 1.372 0 0 0-.876-.1 1.4 1.4 0 0 0-.145-.462c.48-.171 1.614-1.3 2.252-.923.3.177.433 1.188.457 1.68a1.715 1.715 0 0 1-.206 1.036z" class="cls-13" transform="translate(-129.667 175.168)"/>
    <path id="path88" d="M107.263-153.374c0 .065 0 .13-.008.2-.267.175-.7.173-.99.32a2.573 2.573 0 0 1 1.065.269l-.019.488a17.4 17.4 0 0 1-1.511 1.147 4 4 0 0 1-1.517.463c-.164-.038-.179-.241-.244-.433a6.2 6.2 0 0 1-.489-1.682c-.036-.78-.114-2.088.727-1.928a7.513 7.513 0 0 1 1.993.729 2.056 2.056 0 0 0 .994.43" class="cls-1" transform="translate(-91.018 173.559)"/>
    <path id="path90" d="M107.263-153.374c0 .065 0 .13-.008.2-.267.175-.7.173-.99.32a2.573 2.573 0 0 1 1.065.269l-.019.488a17.4 17.4 0 0 1-1.511 1.147 4 4 0 0 1-1.517.463c-.164-.038-.179-.241-.244-.433a6.2 6.2 0 0 1-.489-1.682c-.036-.78-.114-2.088.727-1.928a7.513 7.513 0 0 1 1.993.729 2.056 2.056 0 0 0 .993.427z" class="cls-13" transform="translate(-91.018 173.559)"/>
    <path id="path92" d="M137.456-145.039a2.883 2.883 0 0 1-.128-.917c1.134-.756 1.347 1.3.128.917" class="cls-1" transform="translate(-120.725 166.154)"/>
    <path id="path94" d="M137.456-145.039a2.883 2.883 0 0 1-.128-.917c1.134-.756 1.347 1.298.128.917z" class="cls-13" transform="translate(-120.725 166.154)"/>
    <path id="path96" d="M146.893-156.267s-.353-.5-.1-.655.5 0 .655-.252 0-.4.05-.705.3-.353.554-.4.957-.151 1.057.1l-.3-.906-.6-.2-1.914 1.108-.1.554v1.108" class="cls-14" transform="translate(-128.52 177.727)"/>
    <path id="path98" d="M101.34-152.4q-.091-1.179-.2-2.356c-.107-1.172.282-.968 1.3-.968a2.678 2.678 0 0 1 1.013.3c.275.561-.459.436.316.859.655.357 1.811-.217 1.547-1.01-.148-.176-.771-.055-.995-.171l-1.18-.612c-.5-.26-1.657-.638-2.191-.275-1.352.92.085 3.217.568 4.176" class="cls-14" transform="translate(-88.255 175.523)"/>
    <path id="path100" d="M99.523-274.095c-1.372-.32-2.054.574-2.471 1.5-.371-.09-.224-.6-.13-.853a2.331 2.331 0 0 1 2.045-1.453c.348.052.819.371.556.8" class="cls-15" transform="translate(-85.112 279.375)"/>
    <path id="path102" d="M167.851-255.232h.065a14.192 14.192 0 0 0 .97 1.9c-.262.61-1.985 1.151-1.958.055.373-.163 1.016-.033 1.346-.241a3.736 3.736 0 0 1-.423-1.711" class="cls-15" transform="translate(-146.753 262.076)"/>
    <path id="path104" d="M116.927-255.094a5.756 5.756 0 0 0 .808 1.514c.188.184.555.407.373.918a1.164 1.164 0 0 1-.532.442c-.654.193-2.178.04-1.662-.775.541.025 1.268.351 1.672-.041-.31-.5-.864-1.478-.66-2.057" class="cls-15" transform="translate(-101.814 261.954)"/>
    <path id="path106" d="M143.21-245.741a5.452 5.452 0 0 1-3.7 1.161 1.094 1.094 0 0 1-.141-1.407c.174.3.065.851.551.934.915.157 1.981-.56 2.639-.81.408-.688-.035-.942-.4-1.385-.753-.908-1.763-2.033-1.727-3.392.3-.221.331.337.374.438a12.42 12.42 0 0 0 2.105 2.885c.177.194.469.38.5.508.094.373-.244.82-.2 1.068" class="cls-15" transform="translate(-122.358 258.083)"/>
    <path id="path108" d="M51.158-227.9c-.309-.176-.382-.952-.744-.974-.518-.031-.423 1.007-.421 1.614a1.9 1.9 0 0 1-.157-1.832c-.3-.147-.432.162-.6.27.213-1.545 2.261-.717 1.92.922" class="cls-15" transform="translate(-43.288 239.581)"/>
    <path id="path110" d="M159.682-204.4a2.835 2.835 0 0 1-2.452 1.861 3.321 3.321 0 0 1 0-.88 7.066 7.066 0 0 0 2.45-.981" class="cls-15" transform="translate(-138.203 217.388)"/>
    <path id="path112" d="M124.408-199.721a8.513 8.513 0 0 0 3.6.465 4.083 4.083 0 0 1 .063.883c-1.5.075-3.271-.3-3.664-1.348" class="cls-15" transform="translate(-109.373 213.273)"/>
    <path id="path114" d="M120.409-192.761c.593 1.489 2.632 1.318 4.351 1.277a.92.92 0 0 1-.444.5 4.362 4.362 0 0 1-2.835-.012 3.879 3.879 0 0 1-1.062-1.182c-.128-.165-.767-.586-.01-.587" class="cls-15" transform="translate(-105.537 207.154)"/>
    <path id="path116" d="M156.028-129.7a30.37 30.37 0 0 1-2.188 3.468 16.707 16.707 0 0 0 .547-4.021 1.267 1.267 0 0 1 1.641.553" class="cls-16" transform="translate(-135.248 152.311)"/>
    <path id="path118" d="M187.756-89.326c-.779.156-1.327.913-2.087.865a2.489 2.489 0 0 1 2.087-.865" class="cls-15" transform="translate(-163.23 116.22)"/>
    <path id="path120" d="M191.049-80.595a11.417 11.417 0 0 1-2.026.117c.305-.466 1.48-.305 2.026-.117" class="cls-15" transform="translate(-166.179 108.708)"/>
    <path id="path122" d="M191.021-72.6c-.714.015-1.6 0-2.28-.056.4-.431 1.817-.16 2.28.056" class="cls-15" transform="translate(-165.931 101.768)"/>
    <path id="path124" d="M154.583-46.792A16.782 16.782 0 0 1 155-44a2.919 2.919 0 0 1-1.15.249c-.037-.835-.149-2.11-.116-2.906.26.017.644-.186.853-.13" class="cls-7" transform="translate(-135.146 78.835)"/>
    <path id="path126" d="M131.308-156.061c-.358.234-.664.526-1.008.776a2.22 2.22 0 0 1-1.741-.491c.009-.035.066-.02.068-.063.817.364 1.856-.148 2.681-.222" class="cls-4" transform="translate(-113.022 174.89)"/>
    <path id="path128" d="M115.806-124.606c.225-.973 1.1-1.477 1.9-2.013a16.073 16.073 0 0 1 1.879 3.692 19.249 19.249 0 0 1-3.782-1.679" class="cls-16" transform="translate(-101.81 149.006)"/>
    <path id="path130" d="M39.222-279.682c-.033.8.078 2.071.116 2.906a2.919 2.919 0 0 0 1.15-.249 16.781 16.781 0 0 0-.413-2.787c-.21-.056-.593.147-.853.13zm-8.235-4.524a41.584 41.584 0 0 0 1.78 8.74 11.584 11.584 0 0 0 6.353.115c-.334-1.6-.188-3.553-.383-5.263-.147-1.285-.072-2.578-.274-3.89a21.776 21.776 0 0 0-7.476.3zm8-.277c-.019 1.377.062 2.735.167 4.114.529-.079.888-.132 1.379-.24a29.639 29.639 0 0 0-.465-3.995 3.277 3.277 0 0 0-1.081.121zm2.682-.222a3.292 3.292 0 0 0-.783 0c.113 1.122.386 2.361.482 3.539a3.278 3.278 0 0 0 .889-.226 7.125 7.125 0 0 0-.591-3.313zm4.061 3.711a1.745 1.745 0 0 0 1.061-2.143 10.137 10.137 0 0 0-.692-2.342c-.208-.315-.772-.726-1.222-.438-.732.469-2.022.6-2.556 1.172a18.915 18.915 0 0 1 .461 3.245c.915.057 2.04-.252 2.8.076A10.652 10.652 0 0 0 43.9-281a3.5 3.5 0 0 0 1.825.006zm-7.312-4.782a16.073 16.073 0 0 0-1.879-3.692c-.8.536-1.679 1.04-1.9 2.013a19.249 19.249 0 0 0 3.776 1.678zm1.361-4.022a16.706 16.706 0 0 1-.547 4.021 30.37 30.37 0 0 0 2.188-3.468 1.267 1.267 0 0 0-1.644-.555zm-1.543-.548c-.313-.034-.578.36-.985.19-.093.1-.178.215-.273.315.9 1.083 1.307 2.619 2 3.892a17.077 17.077 0 0 0 .412-3.9c-.515.035-.798-.46-1.157-.498zm-.992-1.31a2.883 2.883 0 0 0 .127.917c1.216.38 1.003-1.674-.13-.918zm-1.352-.444a7.515 7.515 0 0 0-1.993-.729c-.841-.161-.762 1.147-.727 1.928a6.2 6.2 0 0 0 .489 1.682c.066.192.08.395.244.433a4 4 0 0 0 1.517-.463 17.394 17.394 0 0 0 1.511-1.147l.019-.488a2.574 2.574 0 0 0-1.065-.269c.293-.147.723-.145.99-.32 0-.065.005-.13.008-.2a2.056 2.056 0 0 1-.996-.427zm-5.018-.911c-.436.443 1.223 1.046 1.751 1.079 0-.28.16-.544.127-.745a5.575 5.575 0 0 1-1.881-.335zm5.371.208c0 .043-.058.027-.068.063a2.22 2.22 0 0 0 1.741.491c.344-.25.65-.542 1.008-.776-.826.072-1.867.585-2.684.225zm4.93 1.495c-.024-.492-.153-1.5-.457-1.68-.638-.372-1.772.752-2.252.923a1.4 1.4 0 0 1 .145.462 1.373 1.373 0 0 1 .876.1 1.8 1.8 0 0 0-.789.165 7.131 7.131 0 0 0-.029.749 9.568 9.568 0 0 0 2.3.317 1.715 1.715 0 0 0 .203-1.038zm-11.034-1.275c-.137-.1-1.063-1.3-1.19-1.253a19.93 19.93 0 0 0-4.643 2.885 25.3 25.3 0 0 1 1.969 9.758c1.529.715 2.873 1.747 4.948 1.854-.24-1.7-.459-3.215-.6-4.815-.521-.22-1.27.01-1.758-.068 0-.588.745-.258.808-.653.047-.3-.412-.322-.263-.793.382.139.582.445.989.56.372-.813-.005-2.252.048-2.932.01-.128.064-.707.35-.605.253.09-.014 1.541.013 2.185a3.376 3.376 0 0 0 .168 1.538 57.318 57.318 0 0 1 6.213-.509 15.04 15.04 0 0 1-1.666-.749c-.337-.19-1.4-.585-1.5-.906-.155-.51.407-.782.5-1.219-1.012.552-1.21-.529-1.449-1.3a10.069 10.069 0 0 1-.394-1.612 17.442 17.442 0 0 1-2.555-1.37zm10.149-1.107c1.4-.677 1.648 2.531 1.1 3.564.085.308.376.426.494.7-.779 1.4-1.645 2.7-2.44 4.078.591-.368 1.436-.066 2.132-.341.254-.1.439-.683.631-1.149a24.986 24.986 0 0 0 1.333-4.121 5.214 5.214 0 0 0 .174-1.134c-.061-.444-.664-.773-.97-1.048-.565-.507-.92-.954-1.509-1.428-.241.354-.754.591-.949.878zm-13.346-12.384c-.665.732-.526 2.1-.446 3.08a1.788 1.788 0 0 1 2.784 1.347c.574-.015.215-.717.111-1.169-.339-1.477.572-3.081.041-4.432a3.65 3.65 0 0 0-2.49 1.174zm4.761-4.249c-1.506.427-3.437 1.521-4.056 2.875.479-.07.812-.311 1.285-.341a3.16 3.16 0 0 0 .618.024c.409-.1.755-1.019 1.063-1.361s.663-.476.91-.78c.159-.077.394-.071.4-.31-.065-.074-.138-.13-.225-.107zm7.841.4c-1.563-.882-4.21-1.546-5.873-.717-1.342.669-3.156 1.776-3.774 3.179.578 1.354-.171 2.594-.219 3.969-.025.731.344 1.37.373 2.166-.2.326-.8.366-1.22.344-.141-.7-.387-1.5-1.112-1.575a1.683 1.683 0 0 0-1.823 1.625c-.055 1.044.8 2.774 2.016 2.654.469-.046.584-.517 1.1-.512.277.553-.427.726-.5 1.122a3.176 3.176 0 0 0 .1.688 9.4 9.4 0 0 0 1.2 2.785c.614.88 1.821 1.013 3.12 1.1.232-.5 1.086-.458 1.643-.328a5.5 5.5 0 0 1-1.8-1.472 3.7 3.7 0 0 1-1.219-2.2c1.116 1.548 2.037 2.9 4.066 3.581 1.535.515 3.328-.236 4.508-1.064a5.18 5.18 0 0 0 1.13-1.391 11.788 11.788 0 0 0 1.768-7.131 7.919 7.919 0 0 0-.411-2.852c-.375-.752-1.642-1.424-2.384-.744-.137-.731.617-1.183 1.5-.92a8.381 8.381 0 0 0-2.19-2.305zm2.913 24.106c1.222-.607 3.5-1.635 4.27 0a13.88 13.88 0 0 1 .761 2.246c.207.879-.224 2.726-1.127 3.021a5.361 5.361 0 0 1-2.69.052 1.466 1.466 0 0 1-.327-.429 3.711 3.711 0 0 0-1.871.319c.051.507-.292.589-.614.693-.239.946.477 2.181.306 3.043-.122.614-.878.709-1.434.824a4.72 4.72 0 0 0 .062.915 1.386 1.386 0 0 1-1.237.8 15.536 15.536 0 0 1-6.182-.3c-.477-1.17-.852-2.592-1.25-3.928-1.666.178-3.014-.719-4.285-1.307-.44-.2-1.049-.316-1.213-.666a6 6 0 0 1-.134-1.6 24.351 24.351 0 0 0-.6-4.685c-.186-.72-.51-1.356-.736-2.05a14.791 14.791 0 0 1-.669-2.08c-.141-.951.754-1 1.326-1.416.885-.637 1.579-.989 2.538-1.564a5.785 5.785 0 0 0 1.237-.8c.194-.394-.332-.948-.473-1.257a3.78 3.78 0 0 1-.37-1.383 2.669 2.669 0 0 1-1.781-1.145 4.389 4.389 0 0 1-.5-3.8c.041-.1.247-.294.278-.446a5.15 5.15 0 0 0-.124-1.016c-.055-1.633.276-3.04 1.376-3.533.446-1.778 2.044-2.369 3.549-3.253a11.161 11.161 0 0 1 1.823-.777c2.3-.845 5.823-.686 7.729.756a10.379 10.379 0 0 1 2.563 2.838c1.221 2.468 1.134 6.593.28 9.595a9.657 9.657 0 0 1-.514 1.48c-.162.338-.666 1.015-.6 1.313s1.14 1.13 1.374 1.357c.419.4 1.216.941 1.28 1.451a5.137 5.137 0 0 1-.4 1.81c-.523 1.749-1.033 3.366-1.625 4.925" class="cls-15" transform="translate(-20.637 311.855)"/>
    <path id="path132" d="M112.865-197.418c.066-.088.431-.222.941.023 0 0-.6.1-.554 1.108l-.252-.05s-.26-.914-.135-1.081" class="cls-8" transform="translate(-99.194 211.351)"/>
    <path id="path134" d="M145.616-126.933a.277.277 0 0 1-.277.277.277.277 0 0 1-.277-.277.277.277 0 0 1 .277-.277.277.277 0 0 1 .277.277" class="cls-17" transform="translate(-127.531 149.525)"/>
    <path id="path136" d="M147.908-116.308a.277.277 0 0 1-.277.277.277.277 0 0 1-.277-.277.277.277 0 0 1 .277-.277.277.277 0 0 1 .277.277" class="cls-17" transform="translate(-129.545 140.185)"/>
</svg>
